<svg width="24" height="24" viewBox="0 0 24 24" fill="none" xmlns="http://www.w3.org/2000/svg">
<g clip-path="url(#clip0_96_1272)">
<path d="M23.3783 0.622726C22.932 0.176382 22.3152 -0.0472583 21.6865 0.00903858C20.0805 0.152804 17.1901 0.579132 14.3294 1.30734C10.9172 2.17588 8.60883 3.19452 7.46836 4.33504C5.84522 5.95818 4.70447 8.40398 4.41685 10.8775C4.26797 12.1578 4.34649 13.3729 4.65019 14.489C4.82705 15.139 5.07675 15.7371 5.39546 16.2801C4.95413 16.7579 4.54374 17.2176 4.16878 17.6491C1.68164 20.5117 0.188862 22.7409 0.126518 22.8344C-0.103217 23.179 -0.0101228 23.6447 0.334549 23.8745C0.462424 23.9597 0.60694 24.0005 0.749862 24.0005C0.992205 24.0005 1.2301 23.8832 1.37461 23.6665C1.38933 23.6444 2.87611 21.424 5.3011 18.633C5.61441 18.2724 5.95346 17.8914 6.31444 17.4968C6.34542 17.5291 6.37603 17.5617 6.40772 17.5934C7.23989 18.4255 8.28432 19.0169 9.51197 19.3509C10.2622 19.555 11.0569 19.6574 11.8864 19.6574C12.2909 19.6574 12.7038 19.633 13.1235 19.5842C15.597 19.2966 18.0428 18.1559 19.666 16.5327C20.8065 15.3922 21.8251 13.0839 22.6937 9.67171C23.4219 6.81093 23.8482 3.92052 23.992 2.31459C24.0482 1.68566 23.8246 1.06902 23.3783 0.622726ZM22.4979 2.18071C22.1756 5.78024 20.703 13.3742 18.6053 15.4719C15.8429 18.2343 10.2592 19.3234 7.46836 16.5326C7.42552 16.4898 7.38361 16.4462 7.3426 16.4021C9.43463 14.2325 12.0954 11.8237 15.0203 10.0131C15.3725 9.79508 15.4813 9.33285 15.2633 8.98063C15.0453 8.62851 14.583 8.51962 14.2308 8.73773C11.2849 10.5614 8.60939 12.9536 6.4815 15.1356C5.03522 12.1582 6.17339 7.75129 8.529 5.39568C10.6267 3.29802 18.2207 1.82535 21.8203 1.50309C21.8407 1.50126 21.8605 1.50037 21.8798 1.50037C22.0998 1.50037 22.2468 1.61254 22.3177 1.68337C22.3947 1.76043 22.5206 1.92754 22.4979 2.18071Z" fill="#FBB659"/>
</g>
<defs>
<clipPath id="clip0_96_1272">
<rect width="24" height="24" fill="white"/>
</clipPath>
</defs>
</svg>
