<svg width="24" height="24" viewBox="0 0 24 24" fill="none" xmlns="http://www.w3.org/2000/svg">
<g clip-path="url(#clip0_96_1269)">
<path d="M13.9998 18C13.6592 18 13.3211 18.0579 12.9998 18.171V18C12.9998 17.7348 13.1052 17.4805 13.2927 17.2929C13.4802 17.1054 13.7346 17 13.9998 17C14.1419 16.9991 14.2824 17.0289 14.4119 17.0875C14.5414 17.146 14.6566 17.2318 14.7498 17.3391C14.8355 17.4412 14.9408 17.5251 15.0595 17.586C15.1782 17.6468 15.3078 17.6833 15.4408 17.6933C15.5737 17.7033 15.7074 17.6866 15.8338 17.6442C15.9602 17.6018 16.0769 17.5345 16.1769 17.4463C16.2769 17.3582 16.3583 17.2509 16.4163 17.1308C16.4743 17.0107 16.5076 16.8802 16.5144 16.747C16.5212 16.6139 16.5013 16.4807 16.4559 16.3553C16.4104 16.2299 16.3404 16.1149 16.2498 16.017C15.8468 15.5601 15.3143 15.2367 14.723 15.0898C14.1317 14.943 13.5097 14.9796 12.9398 15.1949C12.3698 15.4102 11.8789 15.7939 11.5324 16.295C11.1858 16.7961 11.0001 17.3908 10.9998 18V21C11 21.6514 11.2122 22.285 11.6043 22.805C11.9964 23.3251 12.5471 23.7035 13.1732 23.8829C13.7994 24.0624 14.4669 24.0332 15.0749 23.7998C15.683 23.5664 16.1986 23.1414 16.5438 22.5891C16.8223 22.1407 16.9798 21.6278 17.001 21.1005C17.0222 20.5732 16.9064 20.0493 16.6648 19.58C16.4115 19.0949 16.0279 18.6899 15.5571 18.4108C15.0863 18.1317 14.547 17.9895 13.9998 18ZM14.8488 21.529C14.7567 21.6768 14.6276 21.7979 14.4744 21.8805C14.3211 21.963 14.1489 22.0041 13.9749 21.9997C13.8009 21.9953 13.631 21.9456 13.4821 21.8554C13.3332 21.7652 13.2104 21.6377 13.1259 21.4855C13.0414 21.3333 12.9981 21.1617 13.0003 20.9876C13.0024 20.8135 13.05 20.643 13.1383 20.493C13.2265 20.3429 13.3525 20.2185 13.5036 20.1321C13.6547 20.0456 13.8257 20.0001 13.9998 20C14.1718 19.9907 14.3431 20.028 14.4956 20.1081C14.648 20.1882 14.776 20.3081 14.8658 20.455C14.9581 20.6196 15.0051 20.8057 15.0021 20.9943C14.9992 21.183 14.9462 21.3675 14.8488 21.529ZM20.9998 15C20.2042 15 19.4411 15.3161 18.8785 15.8787C18.3159 16.4413 17.9998 17.2044 17.9998 18V21C17.9998 21.7957 18.3159 22.5588 18.8785 23.1214C19.4411 23.684 20.2042 24 20.9998 24C21.7955 24 22.5585 23.684 23.1211 23.1214C23.6837 22.5588 23.9998 21.7957 23.9998 21V18C23.9998 17.2044 23.6837 16.4413 23.1211 15.8787C22.5585 15.3161 21.7955 15 20.9998 15ZM21.9998 21C21.9998 21.2653 21.8944 21.5196 21.7069 21.7072C21.5194 21.8947 21.265 22 20.9998 22C20.7346 22 20.4802 21.8947 20.2927 21.7072C20.1052 21.5196 19.9998 21.2653 19.9998 21V18C19.9998 17.7348 20.1052 17.4805 20.2927 17.2929C20.4802 17.1054 20.7346 17 20.9998 17C21.265 17 21.5194 17.1054 21.7069 17.2929C21.8944 17.4805 21.9998 17.7348 21.9998 18V21ZM11.9998 13H7.9998C7.73459 13 7.48023 12.8947 7.29269 12.7072C7.10516 12.5196 6.9998 12.2653 6.9998 12C6.9998 11.7348 7.10516 11.4805 7.29269 11.2929C7.48023 11.1054 7.73459 11 7.9998 11H10.9998V7.00005C10.9998 6.73483 11.1052 6.48048 11.2927 6.29294C11.4802 6.10541 11.7346 6.00005 11.9998 6.00005C12.265 6.00005 12.5194 6.10541 12.7069 6.29294C12.8944 6.48048 12.9998 6.73483 12.9998 7.00005V12C12.9998 12.2653 12.8944 12.5196 12.7069 12.7072C12.5194 12.8947 12.265 13 11.9998 13ZM23.9998 3.00005V6.00005C23.9998 6.7957 23.6837 7.55876 23.1211 8.12137C22.5585 8.68398 21.7955 9.00005 20.9998 9.00005H17.9998C17.7346 9.00005 17.4802 8.89469 17.2927 8.70716C17.1052 8.51962 16.9998 8.26527 16.9998 8.00005C16.9998 7.73483 17.1052 7.48048 17.2927 7.29294C17.4802 7.10541 17.7346 7.00005 17.9998 7.00005H20.6368C19.8366 5.61918 18.7173 4.45009 17.3726 3.59064C16.0278 2.7312 14.4967 2.20641 12.9075 2.06022C11.3182 1.91402 9.71708 2.15067 8.23809 2.75035C6.75909 3.35004 5.44527 4.2953 4.40662 5.50702C3.36797 6.71874 2.63471 8.16164 2.26823 9.71494C1.90175 11.2682 1.91271 12.8867 2.30019 14.4349C2.68767 15.9831 3.4404 17.416 4.49536 18.6135C5.55032 19.8111 6.87682 20.7384 8.3638 21.3181C8.61098 21.4146 8.80969 21.6054 8.91621 21.8484C9.02273 22.0915 9.02834 22.3669 8.9318 22.614C8.83526 22.8612 8.64449 23.0599 8.40144 23.1665C8.15839 23.273 7.88298 23.2786 7.6358 23.182C5.87846 22.4966 4.30746 21.4065 3.05028 20.0002C1.7931 18.5939 0.88515 16.911 0.400101 15.0882C-0.0849487 13.2653 -0.133435 11.3537 0.258576 9.50861C0.650587 7.66349 1.47205 5.93677 2.65632 4.46855C3.84059 3.00034 5.3543 1.83198 7.07463 1.05829C8.79497 0.284601 10.6735 -0.0726351 12.5577 0.015569C14.4419 0.103773 16.2789 0.634933 17.9194 1.56595C19.5599 2.49697 20.9579 3.80162 21.9998 5.37405V3.00005C21.9998 2.73483 22.1052 2.48048 22.2927 2.29294C22.4802 2.10541 22.7346 2.00005 22.9998 2.00005C23.265 2.00005 23.5194 2.10541 23.7069 2.29294C23.8944 2.48048 23.9998 2.73483 23.9998 3.00005Z" fill="#FBB659"/>
</g>
<defs>
<clipPath id="clip0_96_1269">
<rect width="24" height="24" fill="white"/>
</clipPath>
</defs>
</svg>
